<svg xmlns="http://www.w3.org/2000/svg" viewBox="0 0 185.79 44.57"><defs><style>.cls-1{fill:none;stroke:#fff;stroke-miterlimit:10;stroke-width:0.5px;}.cls-2{fill:#fff;}</style></defs><g id="レイヤー_2" data-name="レイヤー 2"><g id="レイヤー_1-2" data-name="レイヤー 1"><path class="cls-1" d="M185.6,2.69C154.22,29.08,141.22,26,108.28,19.11,59.83,8.92,32.05,5.94.24,29.14"/><path class="cls-1" d="M185.62,2.67c-30.42,26.15-43,25.85-80.07,17.33C54.6,8.28,26.39,10.66.14,29.22"/><path class="cls-2" d="M98.81,28.41a.51.51,0,0,0,.42-.14c.09-.09.19-.2.25-.21s.09.11,0,.34a7.39,7.39,0,0,0-.23,1.76c0,.21,0,.29-.07.3s-.14,0-.17-.27a1.45,1.45,0,0,0-.47-1.09,2.25,2.25,0,0,0-2.09-.18,5.39,5.39,0,0,0-3.18,2.62,7.32,7.32,0,0,0-.54,4.86,3.73,3.73,0,0,0,1.49,2.36,3.07,3.07,0,0,0,2.29.31,1.64,1.64,0,0,0,1.38-1.2A15.7,15.7,0,0,0,98.12,35c0-.37-.34-.49-1-.37-.43.06-.47-.15-.06-.26s1.08-.23,1.52-.34.93-.3,1.12-.35c.46-.11.36.11,0,.28s-.45.28-.54,1.07c0,.36-.06,1.09-.06,1.69a4.65,4.65,0,0,0,.07,1c0,.13,0,.16-.44.52A8.68,8.68,0,0,1,96,39.55a3.69,3.69,0,0,1-4.48-3,6.2,6.2,0,0,1,1.29-5.67,7,7,0,0,1,3.8-2.31A7.43,7.43,0,0,1,98.81,28.41Z"/><path class="cls-2" d="M114.75,32.54a8.55,8.55,0,0,1,.07,2.41,15.23,15.23,0,0,1-.33,2c0,.24.06.18.16,0a16.84,16.84,0,0,0,2-5.16c0-.07.1-.13.13-.12.26,0,.38.38.34.64-.07,1-1.66,3.82-2.3,4.85a13,13,0,0,1-.78,1.15,13.11,13.11,0,0,1-2.61,2.79,3,3,0,0,1-1.91.71.69.69,0,0,1-.13-1.36c.15,0,.18.06.21.28a.71.71,0,0,0,.61.55,2.16,2.16,0,0,0,1.66-.88,7.63,7.63,0,0,0,1.66-2.76,10.73,10.73,0,0,0,.35-4.7c-.11-.45-.27-.67-.45-.68-.42,0-.73.61-.88,1s-.2.21-.18-.05c.06-.86.83-1.75,1.49-1.7C114.33,31.59,114.61,32,114.75,32.54Z"/><path class="cls-2" d="M133.87,36.19a1.64,1.64,0,0,1,.08,1.24,5.66,5.66,0,0,1-4.26,3.28,2,2,0,0,1-.79,0,.71.71,0,0,1-.32-.26c-.06,0-.07,0-.1,0-.24.24-1.49,2.22-1.93,3-.34.57-.2.67.26,1s.15.27-.08.2-.71-.28-1.14-.42-.84-.22-1.16-.33-.36-.27.06-.2a1,1,0,0,0,1.14-.47c.74-1,3.8-5.63,5.17-7.7,0,0,0-.11,0-.1a5.09,5.09,0,0,0-1.05-.1c-.19,0,0-.13.1-.17a4.2,4.2,0,0,1,1.15,0l.11-.08.7-1a.38.38,0,0,1,.29-.09c.26.09.43.39.37.52s-.34.56-.46.76c0,0,0,.1,0,.1s.58.15.78.22A2,2,0,0,1,133.87,36.19Zm-2-.64a.16.16,0,0,0-.16.06c-.36.5-2.18,3.19-2.83,4.22-.15.24-.1.59.06.64a1.51,1.51,0,0,0,.77-.11,7.07,7.07,0,0,0,3.36-3.3,1,1,0,0,0-.7-1.39A2.12,2.12,0,0,0,131.86,35.55Z"/><path class="cls-2" d="M150.88,35.88a.47.47,0,0,1,0,.87c-.11,0-.26,0-.47-.19s-.48-.37-.7-.31-.6.67-.79,1.48a7.58,7.58,0,0,0,0,3.35c.13.5.45.73.73.65a2.33,2.33,0,0,0,1.22-1.38c.09-.17.11-.21.16-.22s.05.29,0,.45a2.53,2.53,0,0,1-1.56,1.86c-.47.13-1.22-.13-1.54-1.31a5.44,5.44,0,0,1-.07-2.1,4.33,4.33,0,0,1,1.34-2.69,2.12,2.12,0,0,1,.91-.56A1.09,1.09,0,0,1,150.88,35.88Z"/><path class="cls-2" d="M163.3,28.6a8.43,8.43,0,0,1,1.79,1.62,15.24,15.24,0,0,1,1.24,1.64c.14.2.17.09.14-.09a17,17,0,0,0-2.32-5,.17.17,0,0,1,0-.18c.19-.17.54,0,.7.2.68.75,1.61,3.84,1.91,5,.18.71.25,1.15.29,1.36a13,13,0,0,1,.21,3.81,3,3,0,0,1-.81,1.87.69.69,0,0,1-1,0,.7.7,0,0,1-.06-.84c.11-.1.17-.08.34,0a.69.69,0,0,0,.82-.06,2.14,2.14,0,0,0,.52-1.8,7.58,7.58,0,0,0-.84-3.11,11.08,11.08,0,0,0-3.15-3.51c-.41-.22-.68-.26-.81-.14-.31.28-.06.95.09,1.31s0,.29-.15.1a1.81,1.81,0,0,1-.2-2.25A1.13,1.13,0,0,1,163.3,28.6Z"/><path class="cls-2" d="M38.3.31a.63.63,0,0,1,.25.48c0,.31-.36.59-.5.6s-.32-.09-.56-.34C37.17.64,37,.47,36.7.5c-.48,0-.92.71-1.33,1.68a9.49,9.49,0,0,0-.73,4.21c0,.66.4,1,.77,1a3,3,0,0,0,1.84-1.46c.15-.2.19-.25.25-.25s0,.37-.11.57a3.26,3.26,0,0,1-2.38,2c-.62,0-1.5-.45-1.64-2a7.44,7.44,0,0,1,.38-2.65A5.6,5.6,0,0,1,36.05.5,2.67,2.67,0,0,1,37.32,0,1.39,1.39,0,0,1,38.3.31Z"/><path class="cls-2" d="M61.75,4.12a6.82,6.82,0,0,1-3.12,4.41A3.11,3.11,0,0,1,56.55,9c-.7-.12-1.41-.9-1.15-2.5a7,7,0,0,1,2.09-3.73A3.81,3.81,0,0,1,60.56,1.5C61.81,1.7,61.9,3.18,61.75,4.12Zm-3.36-.88a9.17,9.17,0,0,0-2.12,4.17c-.12.76,0,1.2.44,1.27s.83-.16,1.44-.73a10.72,10.72,0,0,0,2.72-4.77c.08-.49.2-1.31-.32-1.39S59.36,2.16,58.39,3.24Z"/><path class="cls-2" d="M89.75,3a.05.05,0,0,0,.08,0,3.15,3.15,0,0,1,2.46-.54c.88.24,1.11.83,1,1.33a.93.93,0,0,1-.33.54,1.3,1.3,0,0,1-.81.21A.19.19,0,0,1,92,4.27c.07-.19.19-.48.23-.64.1-.36.08-.84-.42-1-1.12-.3-3,1.82-4.82,5.26-.08.15,0,.26,0,.28l1.46.39c.16,0,.22.08.19.18s-.27.12-.45.09c-.41-.07-1-.2-1.49-.31-.07,0-.15.09-.21.16-.79,1.33-3.13,5.68-4.11,7.35a6.09,6.09,0,0,1-3.51,3,3.38,3.38,0,0,1-1.88.06A1.91,1.91,0,0,1,75.68,18c0-.07-.05,0-.15,0a3.46,3.46,0,0,1-2.68.48c-.56-.15-1-.77-.94-1.07a.93.93,0,0,1,.61-.58c.19-.08.34-.06.43.13.35.63.68,1.09,1.06,1.19.78.21,1.41-.7,2.15-2,1.22-2.05,4.15-7.47,4.94-8.82,0,0,.1-.23,0-.26L80,6.84c-.12,0-.23-.08-.21-.16s.29-.14.42-.12.92.18,1.12.21a.18.18,0,0,0,.18-.1,11.11,11.11,0,0,1,3.9-4.32A4,4,0,0,1,88.35,2,2.06,2.06,0,0,1,89.75,3ZM80.62,16.79c.56-.89,3.8-6.82,4.77-8.42.07-.13,0-.16-.06-.19l-2.77-.7c-.1,0-.18.08-.21.14-.7,1.16-2.74,5-4,7.26a10.07,10.07,0,0,1-1.86,2.46.3.3,0,0,0,0,.17,2.06,2.06,0,0,0,1.47,1.31C78.65,19,79.52,18.59,80.62,16.79ZM85.7,2.87a15.58,15.58,0,0,0-3,4.05c-.08.13,0,.19,0,.21l2.79.7c.11,0,.14,0,.21-.14a15.9,15.9,0,0,1,3-3.93.41.41,0,0,0,.12-.21,1.4,1.4,0,0,0-1-1.36A2.21,2.21,0,0,0,85.7,2.87Z"/><path class="cls-2" d="M110.61,9.67a2.31,2.31,0,0,1-.84,1.7,5.71,5.71,0,0,1-2.74,1.4c-.08,0-.15.14-.17.2a7.36,7.36,0,0,0-.17,2.17c0,.37.18,1,1,.91a2.62,2.62,0,0,0,1.65-1.31c.07-.12.12-.16.16-.06a1.3,1.3,0,0,1-.11.57,2.92,2.92,0,0,1-2.25,1.84c-.67.08-1.44-.62-1.58-1.82a7.93,7.93,0,0,1,.91-4.09,4.59,4.59,0,0,1,2.88-2.39C110.19,8.69,110.56,9.17,110.61,9.67ZM107,12.41c0,.07,0,.08.11.05,1.19-.32,2.71-2,2.61-2.84,0-.35-.21-.56-.47-.53C108.37,9.19,107.44,10.57,107,12.41Z"/><path class="cls-2" d="M132.42,2.4a2.27,2.27,0,0,1-.28,1.88A5.75,5.75,0,0,1,130,6.46c-.08,0-.1.18-.1.24a7.2,7.2,0,0,0,.51,2.12c.16.34.48.89,1.22.56a2.61,2.61,0,0,0,1.15-1.76c0-.13.07-.19.14-.1a1.26,1.26,0,0,1,.08.57,2.94,2.94,0,0,1-1.57,2.45c-.63.28-1.57-.15-2.07-1.24a7.8,7.8,0,0,1-.4-4.17,4.55,4.55,0,0,1,2-3.16A1,1,0,0,1,132.42,2.4Zm-2.58,3.73c0,.06,0,.06.12,0,1-.68,2-2.74,1.61-3.51-.15-.32-.37-.47-.62-.36C130.14,2.64,129.68,4.24,129.84,6.13Z"/></g></g></svg>