<svg xmlns="http://www.w3.org/2000/svg" viewBox="0 0 185.79 44.57"><defs><style>.cls-1{fill:none;stroke:#555;stroke-miterlimit:10;stroke-width:0.5px;}.cls-2{fill:#555;}</style></defs><g id="レイヤー_2" data-name="レイヤー 2"><g id="レイヤー_1-2" data-name="レイヤー 1"><path class="cls-1" d="M185.6,2.69C154.22,29.08,141.22,26,108.28,19.11,59.83,8.92,32.05,6,.24,29.14"/><path class="cls-1" d="M185.62,2.67c-30.42,26.15-43,25.86-80.07,17.33C54.6,8.28,26.39,10.66.14,29.22"/><path class="cls-2" d="M98.81,28.41a.51.51,0,0,0,.42-.14c.1-.09.19-.2.25-.21s.09.11,0,.34a7.39,7.39,0,0,0-.23,1.76c0,.21,0,.29-.07.3s-.14,0-.17-.27a1.45,1.45,0,0,0-.47-1.09,2.25,2.25,0,0,0-2.09-.18,5.39,5.39,0,0,0-3.18,2.62,7.32,7.32,0,0,0-.54,4.86,3.77,3.77,0,0,0,1.49,2.36,3.07,3.07,0,0,0,2.29.31,1.64,1.64,0,0,0,1.38-1.2A15.7,15.7,0,0,0,98.12,35c0-.37-.34-.49-1-.37-.43.06-.47-.15-.06-.26s1.08-.23,1.52-.34.93-.3,1.12-.35c.46-.11.36.11,0,.27s-.45.29-.54,1.08c0,.36-.06,1.08-.06,1.69a4.65,4.65,0,0,0,.07,1c0,.13,0,.16-.44.52A8.68,8.68,0,0,1,96,39.55a3.69,3.69,0,0,1-4.48-3,6.17,6.17,0,0,1,1.3-5.67,6.9,6.9,0,0,1,3.79-2.31A7.43,7.43,0,0,1,98.81,28.41Z"/><path class="cls-2" d="M114.75,32.53a8.64,8.64,0,0,1,.07,2.42,16.9,16.9,0,0,1-.32,2c0,.24,0,.18.16,0a17,17,0,0,0,2-5.16.17.17,0,0,1,.13-.12c.26,0,.38.38.34.64-.07,1-1.65,3.82-2.3,4.85a13,13,0,0,1-.78,1.15,13.11,13.11,0,0,1-2.61,2.79,3,3,0,0,1-1.91.71.69.69,0,0,1-.69-.73.7.7,0,0,1,.56-.63c.15,0,.18.06.21.28a.71.71,0,0,0,.61.55,2.16,2.16,0,0,0,1.66-.88,7.49,7.49,0,0,0,1.66-2.76,10.9,10.9,0,0,0,.36-4.7c-.12-.45-.28-.67-.46-.68-.42,0-.73.61-.88,1s-.2.21-.18-.05c.06-.86.83-1.75,1.49-1.7C114.33,31.59,114.61,32,114.75,32.53Z"/><path class="cls-2" d="M133.87,36.19a1.64,1.64,0,0,1,.08,1.24,5.68,5.68,0,0,1-4.26,3.28,2,2,0,0,1-.79,0,.71.71,0,0,1-.32-.26c-.06,0-.07,0-.1,0-.24.24-1.49,2.22-1.93,3-.34.57-.2.67.26,1s.15.27-.08.19-.71-.27-1.14-.41-.84-.22-1.16-.33-.36-.27.06-.2a1,1,0,0,0,1.14-.47c.74-1,3.8-5.63,5.17-7.7,0,0,0-.11,0-.1a5.09,5.09,0,0,0-1.05-.1c-.19,0,0-.13.1-.17a4.2,4.2,0,0,1,1.15,0l.11-.08.7-1a.38.38,0,0,1,.29-.09c.26.09.43.39.37.52s-.34.56-.46.76c0,0,0,.1,0,.1s.58.15.78.22A2,2,0,0,1,133.87,36.19Zm-2-.64c-.08,0-.11,0-.16.06-.36.5-2.18,3.19-2.83,4.22-.15.24-.1.59.06.64a1.45,1.45,0,0,0,.77-.12,7.06,7.06,0,0,0,3.36-3.28,1,1,0,0,0-.69-1.4A2.31,2.31,0,0,0,131.86,35.55Z"/><path class="cls-2" d="M150.88,35.88a.52.52,0,0,1,.26.33.55.55,0,0,1-.31.54c-.11,0-.26,0-.47-.19s-.48-.37-.7-.31-.6.67-.79,1.48a7.58,7.58,0,0,0,0,3.35c.13.5.45.73.73.65a2.33,2.33,0,0,0,1.22-1.38c.09-.17.11-.21.16-.22s.05.29,0,.45a2.56,2.56,0,0,1-1.56,1.87c-.47.12-1.22-.14-1.54-1.32a5.66,5.66,0,0,1-.07-2.1,4.3,4.3,0,0,1,1.35-2.69,2,2,0,0,1,.9-.56A1.09,1.09,0,0,1,150.88,35.88Z"/><path class="cls-2" d="M163.3,28.6a8.43,8.43,0,0,1,1.79,1.62,16.31,16.31,0,0,1,1.24,1.64c.14.2.17.09.14-.09a16.85,16.85,0,0,0-2.32-5,.17.17,0,0,1,0-.18c.19-.17.54,0,.7.2.68.75,1.61,3.84,1.91,5,.18.71.25,1.15.29,1.36a13,13,0,0,1,.21,3.81,3,3,0,0,1-.81,1.87.69.69,0,0,1-1,0,.7.7,0,0,1-.06-.84c.11-.1.17-.08.34,0a.69.69,0,0,0,.82-.06,2.14,2.14,0,0,0,.52-1.8,7.58,7.58,0,0,0-.84-3.11,11.08,11.08,0,0,0-3.15-3.51c-.4-.22-.68-.26-.81-.14-.31.28-.06.95.09,1.31s0,.29-.15.1a1.81,1.81,0,0,1-.2-2.25C162.33,28.25,162.82,28.34,163.3,28.6Z"/><path class="cls-2" d="M38.3.31a.63.63,0,0,1,.25.48c0,.31-.36.59-.5.6s-.32-.09-.55-.34C37.17.64,37,.47,36.7.5c-.48,0-.92.71-1.33,1.68a9.49,9.49,0,0,0-.73,4.21c.06.66.4,1,.77,1a3,3,0,0,0,1.84-1.46c.15-.2.19-.25.25-.25s0,.37-.11.57a3.26,3.26,0,0,1-2.38,2c-.62,0-1.5-.45-1.64-2a7.44,7.44,0,0,1,.38-2.65A5.6,5.6,0,0,1,36.05.5,2.54,2.54,0,0,1,37.32,0,1.3,1.3,0,0,1,38.3.31Z"/><path class="cls-2" d="M61.75,4.12a6.82,6.82,0,0,1-3.12,4.41A3.19,3.19,0,0,1,56.54,9c-.69-.12-1.4-.9-1.15-2.5a7.14,7.14,0,0,1,2.1-3.73A3.81,3.81,0,0,1,60.56,1.5C61.81,1.7,61.9,3.18,61.75,4.12Zm-3.36-.88a9.17,9.17,0,0,0-2.12,4.17c-.12.76,0,1.2.44,1.27s.83-.16,1.44-.73a10.74,10.74,0,0,0,2.72-4.76c.08-.5.2-1.32-.32-1.4S59.36,2.16,58.39,3.24Z"/><path class="cls-2" d="M89.75,3a.05.05,0,0,0,.08,0,3.15,3.15,0,0,1,2.46-.54c.88.24,1.1.83,1,1.33a.9.9,0,0,1-.34.54,1.26,1.26,0,0,1-.8.21A.18.18,0,0,1,92,4.27c.07-.19.19-.48.23-.64.1-.36.08-.84-.42-1-1.12-.3-3,1.82-4.82,5.26-.08.15,0,.26,0,.28l1.46.39c.16,0,.22.08.19.18s-.27.12-.45.09c-.41-.07-1-.2-1.49-.31-.08,0-.15.09-.21.16-.79,1.33-3.13,5.68-4.11,7.35a6.09,6.09,0,0,1-3.51,3,3.38,3.38,0,0,1-1.88.06A1.91,1.91,0,0,1,75.68,18c0-.07-.05,0-.15,0a3.46,3.46,0,0,1-2.68.48c-.56-.15-1-.77-.94-1.07a.93.93,0,0,1,.61-.58c.19-.08.34-.06.43.13.35.63.68,1.09,1.06,1.19.78.21,1.41-.7,2.15-2,1.22-2.05,4.15-7.47,4.94-8.82,0,0,.1-.23,0-.26L80,6.84c-.12,0-.23-.08-.21-.16s.29-.14.42-.12.92.18,1.12.21a.18.18,0,0,0,.18-.1,11.11,11.11,0,0,1,3.9-4.32A4,4,0,0,1,88.35,2,2.09,2.09,0,0,1,89.75,3ZM80.62,16.79c.56-.88,3.8-6.82,4.76-8.42.08-.13.05-.16,0-.19l-2.78-.7c-.09,0-.17.08-.2.14-.7,1.16-2.74,5-4,7.26a10.07,10.07,0,0,1-1.86,2.46.3.3,0,0,0,0,.17,2.09,2.09,0,0,0,1.47,1.32C78.65,19,79.52,18.59,80.62,16.79ZM85.7,2.87a15.49,15.49,0,0,0-3,4.06c-.08.12,0,.18,0,.2l2.79.7c.11,0,.14,0,.21-.14a15.9,15.9,0,0,1,3-3.93.38.38,0,0,0,.12-.21,1.4,1.4,0,0,0-1-1.36A2.23,2.23,0,0,0,85.7,2.87Z"/><path class="cls-2" d="M110.61,9.67a2.31,2.31,0,0,1-.84,1.7,5.76,5.76,0,0,1-2.74,1.4c-.09,0-.15.14-.17.2a7.36,7.36,0,0,0-.17,2.17c0,.37.18,1,1,.91a2.62,2.62,0,0,0,1.65-1.31c.07-.12.12-.16.15-.06a1.08,1.08,0,0,1-.1.57,2.92,2.92,0,0,1-2.25,1.84c-.68.08-1.44-.62-1.58-1.82a7.87,7.87,0,0,1,.91-4.08,4.58,4.58,0,0,1,2.88-2.4C110.19,8.7,110.56,9.18,110.61,9.67ZM107,12.41c0,.07,0,.08.11.05,1.19-.32,2.71-2,2.61-2.84,0-.35-.21-.56-.48-.53C108.37,9.2,107.44,10.57,107,12.41Z"/><path class="cls-2" d="M132.42,2.4a2.27,2.27,0,0,1-.28,1.88A5.68,5.68,0,0,1,130,6.46c-.08,0-.1.18-.09.24a7.18,7.18,0,0,0,.5,2.12c.16.34.48.9,1.22.56a2.61,2.61,0,0,0,1.15-1.75c0-.13.08-.2.14-.11a1.32,1.32,0,0,1,.08.58,2.9,2.9,0,0,1-1.58,2.44c-.62.29-1.57-.15-2.06-1.24a7.9,7.9,0,0,1-.4-4.17,4.55,4.55,0,0,1,2-3.16A1,1,0,0,1,132.42,2.4Zm-2.58,3.73c0,.06,0,.06.12,0,1-.67,2-2.73,1.61-3.51-.14-.32-.37-.47-.61-.35C130.14,2.64,129.69,4.24,129.84,6.13Z"/></g></g></svg>