<svg xmlns="http://www.w3.org/2000/svg" viewBox="0 0 3000.95 940.16"><defs><style>.cls-1,.cls-2{fill:#636363;}.cls-2{font-size:86.04px;font-family:NotoSans-LightItalic, Noto Sans;font-weight:300;font-style:italic;letter-spacing:0.04em;}.cls-3{fill:#ddc699;}.cls-4{fill:#eae3c5;}.cls-5{fill:#afafaf;}.cls-6{fill:#0064db;}.cls-7{fill:none;stroke:#d3b45e;stroke-width:8px;}</style></defs><g id="ロゴアイコン完成"><path class="cls-1" d="M2835.57,748.7h-77.14L2556.65,470.4,2434.28,598.21V748.7h-58.69V180.81h58.69l.49,341.56,330.14-342h70.72L2604.85,426.28Z"/><path class="cls-1" d="M1466.28,446.84q36.72,0,63.72,16.26t41.31,45.81q14.31,29.55,14.31,69.11v28.73H1388.17q1.08,49.34,25.11,75.08c16,17.17,37.7,25.75,66.5,25.75q27.54,0,48.87-5.15a274.08,274.08,0,0,0,44-14.91v41.74a224.37,224.37,0,0,1-43.74,14.37q-21.6,4.59-51.3,4.6c-27.72,0-51.29-5.59-72.17-16.8s-37.17-27.82-48.87-49.87S1339,632.23,1339,599.71q0-47.7,15.93-81.86t44.82-52.58C1419,453,1440.72,446.84,1466.28,446.84Zm-.54,39c-22.68,0-39.86,7.32-53,22s-21,35-23.49,61h146.69q-.54-36.85-17.28-59.9T1465.74,485.87Z"/><path class="cls-1" d="M1804.85,452.73q51.84,0,78.3,25.47t26.46,81.31V748.7h-47V562.77q0-69.93-64.8-69.93-48.06,0-66.41,27.1T1713.06,598V748.7h-47.52V458.15h38.34l7,39.57h2.7a85.61,85.61,0,0,1,38.88-33.88A126.89,126.89,0,0,1,1804.85,452.73Z"/><path class="cls-1" d="M2133.89,452.73q8.1,0,17.28.81a136.14,136.14,0,0,1,16.74,2.44L2162,499.89a155.84,155.84,0,0,0-15.66-2.72,127.29,127.29,0,0,0-15.66-1.08,76.89,76.89,0,0,0-41.58,12.2,89.28,89.28,0,0,0-31.77,34.15q-11.62,22-11.61,51.23v155h-47.52V458.15h38.88l5.4,53.12h2.16c9-15.9,21.69-29.63,36.63-41.2S2113.73,452.73,2133.89,452.73Z"/><text class="cls-2" transform="translate(1354.78 302.42)">Relaxation salon</text><rect class="cls-1" x="2216.22" y="458.53" width="44.08" height="290.57"/><ellipse class="cls-1" cx="2238.26" cy="367.23" rx="36.69" ry="36.83"/><rect class="cls-1" x="871.6" y="466.44" width="347.14" height="60.23"/><rect class="cls-1" x="560.88" y="435.37" width="565.74" height="60" transform="translate(1309.11 -378.38) rotate(90)"/><rect class="cls-1" x="965.87" y="435.37" width="565.74" height="60" transform="translate(1714.1 -783.37) rotate(90)"/></g><g id="アイコン"><g id="アイコン修正"><rect class="cls-3" x="153.21" y="195.14" width="64" height="549.72"/><rect class="cls-3" x="412.12" y="195.14" width="64" height="549.72"/><rect class="cls-4" x="217.14" y="195.65" width="32" height="549.72"/><rect class="cls-3" x="277.4" y="355.18" width="64" height="184.38" transform="translate(756.77 137.97) rotate(90)"/><polygon class="cls-4" points="707.87 191.13 649.33 191.13 411.13 566.47 411.35 657.41 707.87 191.13"/><polygon class="cls-5" points="407.1 718.94 404.82 663.23 707.49 191.44 707.35 250.92 407.1 718.94"/><polygon class="cls-4" points="707.87 748.89 665.14 749.03 522.24 479.37 553.86 430.92 707.87 748.89"/><rect class="cls-6" x="402.07" y="195.12" width="10.04" height="549.81"/><rect id="枠" class="cls-7" x="150.11" y="191.13" width="557.76" height="557.76"/></g></g></svg>